RobotoSerifTextWide-HairlineWidth730.ufo
<glyph name="slash" format="2">
  <advance width="488.08000000000004"/>
  <unicode hex="002F"/>
  <outline>
    <contour>
      <point x="475.4536" y="750.0" type="line"/>
      <point x="-26.011200000000002" y="-129.90800000000002" type="line"/>
      <point x="12.166400000000001" y="-129.90800000000002" type="line"/>
      <point x="513.6312" y="750.0" type="line"/>
    </contour>
  </outline>
</glyph>
<glyph name="six" format="2">
  <advance width="650.1600000000001"/>
  <unicode hex="0036"/>
  <outline>
    <contour>
      <point x="513.3892" y="708.62" type="line"/>
      <point x="277.4788230605752" y="672.730975543996"/>
      <point x="103.9572" y="502.678"/>
      <point x="103.9572" y="287.368" type="curve" smooth="yes"/>
      <point x="103.9572" y="112.414"/>
      <point x="200.55815089822642" y="21.38"/>
      <point x="337.92" y="21.38" type="curve" smooth="yes"/>
      <point x="472.04255211265047" y="21.38"/>
      <point x="554.5764" y="116.276"/>
      <point x="554.5764" y="233.77" type="curve" smooth="yes"/>
      <point x="554.5764" y="345.17199999999997"/>
      <point x="479.9750078740992" y="427.344"/>
      <point x="351.4288" y="427.344" type="curve" smooth="yes"/>
      <point x="237.75379999999998" y="427.344"/>
      <point x="141.75641258892162" y="353.765249714172"/>
      <point x="87.65719999999999" y="265.896" type="curve"/>
      <point x="74.8172" y="290.23" type="line"/>
      <point x="123.66222816675361" y="376.773929189728"/>
      <point x="229.712246575316" y="458.724"/>
      <point x="353.8952" y="458.724" type="curve" smooth="yes"/>
      <point x="503.8445859154984" y="458.724"/>
      <point x="598.5148" y="366.13800000000003"/>
      <point x="598.5148" y="233.77" type="curve" smooth="yes"/>
      <point x="598.5148" y="101.494"/>
      <point x="488.22256" y="-10.0"/>
      <point x="337.92" y="-10.0" type="curve" smooth="yes"/>
      <point x="180.66483969473362" y="-10.0"/>
      <point x="59.770399999999995" y="101.54"/>
      <point x="59.770399999999995" y="287.368" type="curve" smooth="yes"/>
      <point x="59.770399999999995" y="503.46"/>
      <point x="240.92158474142644" y="703.88396069348"/>
      <point x="508.0488" y="740.0" type="curve"/>
    </contour>
  </outline>
</glyph>
<glyph name="C" format="2">
  <advance width="795"/>
  <unicode hex="0043"/>
  <anchor x="412.016" y="741.0" name="top"/>
  <anchor x="412.016" y="0.0" name="bottom"/>
  <outline>
    <contour>
      <point x="414.64160000000004" y="688.528" type="curve" smooth="yes"/>
      <point x="559.0840000000001" y="688.528"/>
      <point x="649.5804" y="610.172"/>
      <point x="685.4748" y="505.54" type="curve"/>
      <point x="718.5604000000001" y="505.54" type="line"/>
      <point x="718.5604000000001" y="710.0" type="line"/>
      <point x="692.2292" y="710.0" type="line"/>
      <point x="678.886" y="548.184" type="line"/>
      <point x="693.702" y="567.264" type="line"/>
      <point x="649.1424000000001" y="657.908"/>
      <point x="542.932" y="720.0"/>
      <point x="414.7244" y="720.0" type="curve" smooth="yes"/>
      <point x="219.53199999999998" y="720.0"/>
      <point x="54.36" y="569.0"/>
      <point x="54.36" y="355.0" type="curve" smooth="yes"/>
      <point x="54.36" y="138.0"/>
      <point x="207.9036" y="-10.0"/>
      <point x="422.31320000000005" y="-10.0" type="curve" smooth="yes"/>
      <point x="591.1108" y="-10.0"/>
      <point x="695.2576" y="76.644"/>
      <point x="733.6948" y="200.564" type="curve"/>
      <point x="702.0296" y="216.886" type="line"/>
      <point x="671.2208" y="108.56400000000001"/>
      <point x="581.8836000000001" y="21.472"/>
      <point x="421.6508" y="21.472" type="curve" smooth="yes"/>
      <point x="226.3148" y="21.472"/>
      <point x="98.4272" y="153.874"/>
      <point x="98.4272" y="355.0" type="curve" smooth="yes"/>
      <point x="98.4272" y="556.126"/>
      <point x="243.2772" y="688.528"/>
    </contour>
  </outline>
</glyph>
<glyph name="L" format="2">
  <advance width="672.7828000000001"/>
  <unicode hex="004C"/>
  <anchor x="409.3076" y="741.0" name="top"/>
  <anchor x="511.1536" y="710.0" name="right"/>
  <anchor x="510.90520000000004" y="410.0" name="mid"/>
  <anchor x="409.3076" y="0.0" name="bottom"/>
  <outline>
    <contour>
      <point x="320.1184" y="710.0" type="line"/>
      <point x="320.1184" y="679.218" type="line"/>
      <point x="307.2784" y="679.218" type="line" smooth="yes"/>
      <point x="246.9984" y="679.218"/>
      <point x="204.01839999999999" y="672.218"/>
      <point x="204.01839999999999" y="643.218" type="curve" smooth="yes"/>
      <point x="204.01839999999999" y="31.334" type="line"/>
      <point x="425.7668" y="31.334" type="line" smooth="yes"/>
      <point x="525.5668" y="31.334"/>
      <point x="566.004" y="38.334"/>
      <point x="569.4639999999999" y="74.334" type="curve" smooth="yes"/>
      <point x="581.3868" y="196.334" type="line"/>
      <point x="607.718" y="196.334" type="line"/>
      <point x="607.718" y="0.0" type="line"/>
      <point x="52.36" y="0.0" type="line"/>
      <point x="52.36" y="30.782" type="line"/>
      <point x="65.2" y="30.782" type="line" smooth="yes"/>
      <point x="122.02000000000001" y="30.782"/>
      <point x="163.54000000000002" y="37.782000000000004"/>
      <point x="163.54000000000002" y="66.782" type="curve" smooth="yes"/>
      <point x="163.54000000000002" y="643.218" type="line" smooth="yes"/>
      <point x="163.54000000000002" y="672.218"/>
      <point x="122.02000000000001" y="679.218"/>
      <point x="65.2" y="679.218" type="curve" smooth="yes"/>
      <point x="52.36" y="679.218" type="line"/>
      <point x="52.36" y="710.0" type="line"/>
    </contour>
  </outline>
</glyph>
<glyph name="N" format="2">
  <advance width="876"/>
  <unicode hex="004E"/>
  <anchor x="445.5332" y="741.0" name="top"/>
  <anchor x="445.5332" y="0.0" name="bottom"/>
  <outline>
    <contour>
      <point x="52.36" y="0.0" type="line"/>
      <point x="324.228" y="0.0" type="line"/>
      <point x="324.228" y="30.782" type="line"/>
      <point x="307.928" y="30.782" type="line" smooth="yes"/>
      <point x="258.028" y="30.782"/>
      <point x="201.208" y="38.782000000000004"/>
      <point x="201.208" y="45.782000000000004" type="curve" smooth="yes"/>
      <point x="201.208" y="694.9879999999999" type="line"/>
      <point x="180.8684" y="700.528" type="line"/>
      <point x="664.1656" y="0.0" type="line"/>
      <point x="709.8124" y="0.0" type="line"/>
      <point x="709.8124" y="638.218" type="line" smooth="yes"/>
      <point x="709.8124" y="667.218"/>
      <point x="751.2496" y="679.218"/>
      <point x="808.0696" y="679.218" type="curve" smooth="yes"/>
      <point x="822.4524" y="679.218" type="line"/>
      <point x="822.4524" y="710.0" type="line"/>
      <point x="550.5844000000001" y="710.0" type="line"/>
      <point x="550.5844000000001" y="679.218" type="line"/>
      <point x="566.9672" y="679.218" type="line" smooth="yes"/>
      <point x="616.7844" y="679.218"/>
      <point x="673.6044" y="671.218"/>
      <point x="673.6044" y="664.218" type="curve" smooth="yes"/>
      <point x="673.6044" y="48.978" type="line"/>
      <point x="682.1104" y="45.3" type="line"/>
      <point x="223.4996" y="710.0" type="line"/>
      <point x="52.36" y="710.0" type="line"/>
      <point x="52.36" y="679.218" type="line"/>
      <point x="65.2" y="679.218" type="line" smooth="yes"/>
      <point x="122.02000000000001" y="679.218"/>
      <point x="163.54000000000002" y="672.218"/>
      <point x="163.54000000000002" y="643.218" type="curve" smooth="yes"/>
      <point x="163.54000000000002" y="71.782" type="line" smooth="yes"/>
      <point x="163.54000000000002" y="42.782000000000004"/>
      <point x="122.02000000000001" y="30.782"/>
      <point x="65.2" y="30.782" type="curve" smooth="yes"/>
      <point x="52.36" y="30.782" type="line"/>
    </contour>
  </outline>
</glyph>
<glyph name="Q" format="2">
  <advance width="862.3036"/>
  <unicode hex="0051"/>
  <outline>
    <contour>
      <point x="416.96000000000004" y="-5.586" type="line"/>
      <point x="417.62239999999997" y="-123.414"/>
      <point x="497.0956" y="-179.23"/>
      <point x="633.1736" y="-179.23" type="curve" smooth="yes"/>
      <point x="687.2852" y="-179.23"/>
      <point x="743.2708" y="-169.41400000000002"/>
      <point x="784.1744" y="-154.644" type="curve"/>
      <point x="784.1744" y="-109.482" type="line"/>
      <point x="736.268" y="-127.34400000000001"/>
      <point x="681.9144" y="-143.206"/>
      <point x="624.3732" y="-143.206" type="curve" smooth="yes"/>
      <point x="507.36879999999996" y="-143.206"/>
      <point x="443.96000000000004" y="-95.034"/>
      <point x="447.1716" y="9.046" type="curve"/>
    </contour>
    <contour>
      <point x="430.6104" y="-10.0" type="curve" smooth="yes"/>
      <point x="645.2683999999999" y="-10.0"/>
      <point x="807.4836" y="139.0"/>
      <point x="807.4836" y="355.0" type="curve" smooth="yes"/>
      <point x="807.4836" y="572.0"/>
      <point x="645.2683999999999" y="720.0"/>
      <point x="430.6104" y="720.0" type="curve" smooth="yes"/>
      <point x="216.9524" y="720.0"/>
      <point x="54.36" y="572.0"/>
      <point x="54.36" y="355.0" type="curve" smooth="yes"/>
      <point x="54.36" y="139.0"/>
      <point x="216.9524" y="-10.0"/>
    </contour>
    <contour>
      <point x="430.6104" y="21.38" type="curve" smooth="yes"/>
      <point x="235.0692" y="21.38"/>
      <point x="98.4272" y="150.828"/>
      <point x="98.4272" y="355.0" type="curve" smooth="yes"/>
      <point x="98.4272" y="559.172"/>
      <point x="235.0692" y="688.62"/>
      <point x="430.6104" y="688.62" type="curve" smooth="yes"/>
      <point x="625.6088" y="688.62"/>
      <point x="763.9592" y="559.172"/>
      <point x="763.9592" y="355.0" type="curve" smooth="yes"/>
      <point x="763.9592" y="150.828"/>
      <point x="625.6088" y="21.38"/>
    </contour>
  </outline>
</glyph>
<glyph name="U" format="2">
  <advance width="907.4732"/>
  <unicode hex="0055"/>
  <anchor x="453.1984" y="741.0" name="top"/>
  <anchor x="515.8556" y="0.0" name="right"/>
  <anchor x="453.1984" y="0.0" name="bottom"/>
  <outline>
    <contour>
      <point x="204.2668" y="271.0" type="curve" smooth="yes"/>
      <point x="204.2668" y="669.218" type="line" smooth="yes"/>
      <point x="204.2668" y="676.218"/>
      <point x="261.08680000000004" y="679.218"/>
      <point x="305.52680000000004" y="679.218" type="curve" smooth="yes"/>
      <point x="315.90680000000003" y="679.218" type="line"/>
      <point x="315.90680000000003" y="710.0" type="line"/>
      <point x="52.6084" y="710.0" type="line"/>
      <point x="52.6084" y="679.218" type="line"/>
      <point x="65.44839999999999" y="679.218" type="line" smooth="yes"/>
      <point x="122.26840000000001" y="679.218"/>
      <point x="163.7056" y="672.218"/>
      <point x="163.7056" y="643.218" type="curve" smooth="yes"/>
      <point x="163.7056" y="271.0" type="line" smooth="yes"/>
      <point x="163.7056" y="68.138"/>
      <point x="285.8148" y="-10.0"/>
      <point x="453.1984" y="-10.0" type="curve" smooth="yes"/>
      <point x="615.3244000000001" y="-10.0"/>
      <point x="743.6848" y="69.04599999999999"/>
      <point x="743.6848" y="271.0" type="curve" smooth="yes"/>
      <point x="743.6848" y="633.218" type="line" smooth="yes"/>
      <point x="743.6848" y="667.218"/>
      <point x="785.7475999999999" y="679.218"/>
      <point x="842.4848" y="679.218" type="curve" smooth="yes"/>
      <point x="855.4076" y="679.218" type="line"/>
      <point x="855.4076" y="710.0" type="line"/>
      <point x="597.6279999999999" y="710.0" type="line"/>
      <point x="597.6279999999999" y="679.218" type="line"/>
      <point x="607.9252" y="679.218" type="line" smooth="yes"/>
      <point x="651.9052" y="679.218"/>
      <point x="708.7252" y="671.218"/>
      <point x="708.7252" y="657.218" type="curve" smooth="yes"/>
      <point x="708.7252" y="271.0" type="line" smooth="yes"/>
      <point x="708.7252" y="89.6534516128944"/>
      <point x="599.3492" y="25.61"/>
      <point x="457.3732" y="25.61" type="curve" smooth="yes"/>
      <point x="316.894" y="25.61"/>
      <point x="204.2668" y="87.15"/>
    </contour>
  </outline>
</glyph>
<glyph name="V" format="2">
  <advance width="785"/>
  <unicode hex="0056"/>
  <outline>
    <contour>
      <point x="403.5992" y="7.4719999999999995" type="line"/>
      <point x="130.478" y="669.218" type="line"/>
      <point x="130.478" y="676.218"/>
      <point x="186.298" y="679.218"/>
      <point x="230.27799999999996" y="679.218" type="curve" smooth="yes"/>
      <point x="250.03799999999998" y="679.218" type="line"/>
      <point x="250.03799999999998" y="710.0" type="line"/>
      <point x="12.0884" y="710.0" type="line"/>
      <point x="12.0884" y="679.218" type="line"/>
      <point x="17.465600000000002" y="679.218" type="line"/>
      <point x="57.0684" y="679.218"/>
      <point x="82.7484" y="677.218"/>
      <point x="93.1284" y="651.218" type="curve" smooth="yes"/>
      <point x="363.46479999999997" y="0.0" type="line"/>
      <point x="424.61400000000003" y="0.0" type="line"/>
      <point x="686.1132" y="636.218" type="line" smooth="yes"/>
      <point x="700.9532" y="673.218"/>
      <point x="724.1732000000001" y="679.218"/>
      <point x="767.1532" y="679.218" type="curve"/>
      <point x="773.0732" y="679.218" type="line"/>
      <point x="773.0732" y="710.0" type="line"/>
      <point x="541.6424000000001" y="710.0" type="line"/>
      <point x="541.6424000000001" y="679.218" type="line"/>
      <point x="558.9424" y="679.218" type="line" smooth="yes"/>
      <point x="603.3824" y="679.218"/>
      <point x="656.7424000000001" y="672.218"/>
      <point x="656.7424000000001" y="661.218" type="curve"/>
      <point x="393.50440000000003" y="22.208" type="line"/>
    </contour>
  </outline>
</glyph>
<glyph name="asciicircum" format="2">
  <advance width="580.7944"/>
  <unicode hex="005E"/>
  <outline>
    <contour>
      <point x="121.0264" y="364.0" type="line"/>
      <point x="294.6916" y="685.0" type="line"/>
      <point x="299.15160000000003" y="710.0" type="line"/>
      <point x="266.9528" y="710.0" type="line"/>
      <point x="77.23599999999999" y="364.0" type="line"/>
    </contour>
    <contour>
      <point x="459.72200000000004" y="364.0" type="line"/>
      <point x="503.01559999999995" y="364.0" type="line"/>
      <point x="312.216" y="710.0" type="line"/>
      <point x="282.514" y="710.0" type="line"/>
      <point x="285.0568" y="686.0" type="line"/>
    </contour>
  </outline>
</glyph>
<glyph name="underscore" format="2">
  <advance width="556.28"/>
  <unicode hex="005F"/>
  <outline>
    <contour>
      <point x="-5.92" y="-109.31" type="line"/>
      <point x="-5.92" y="-140.69" type="line"/>
      <point x="561.74" y="-140.69" type="line"/>
      <point x="561.74" y="-109.31" type="line"/>
    </contour>
  </outline>
</glyph>
<glyph name="b" format="2">
  <advance width="681"/>
  <unicode hex="0062"/>
  <outline>
    <contour>
      <point x="378.42240000000004" y="-10.0" type="curve" smooth="yes"/>
      <point x="530.3404" y="-10.0"/>
      <point x="630.6068" y="99.0"/>
      <point x="630.6068" y="257.0" type="curve" smooth="yes"/>
      <point x="630.6068" y="414.0"/>
      <point x="535.4259999999999" y="518.0"/>
      <point x="387.80240000000003" y="518.0" type="curve" smooth="yes"/>
      <point x="282.42" y="518.0"/>
      <point x="215.392" y="471.368"/>
      <point x="155.3604" y="391.368" type="curve"/>
      <point x="152" y="338" type="line"/>
      <point x="214" y="429"/>
      <point x="285.2112" y="486.758"/>
      <point x="380.8824" y="486.758" type="curve" smooth="yes"/>
      <point x="514.1408" y="486.758"/>
      <point x="586.4200000000001" y="398.218"/>
      <point x="586.4200000000001" y="257.0" type="curve" smooth="yes"/>
      <point x="586.4200000000001" y="115.736"/>
      <point x="511.9752" y="21.242"/>
      <point x="374.8796" y="21.242" type="curve" smooth="yes"/>
      <point x="276.54600000000005" y="21.242"/>
      <point x="203" y="81"/>
      <point x="154" y="175" type="curve"/>
      <point x="155.3604" y="116.08" type="line"/>
      <point x="209.932" y="33.494"/>
      <point x="276.7944" y="-10.0"/>
    </contour>
    <contour>
      <point x="117.89760000000001" y="662.034" type="curve" smooth="yes"/>
      <point x="117.89760000000001" y="-3.0" type="line"/>
      <point x="142.60320000000002" y="-3.0" type="line"/>
      <point x="160.03199999999998" y="125.08" type="line"/>
      <point x="158.8728" y="125.77" type="line"/>
      <point x="158.8728" y="735.0" type="line"/>
      <point x="20.1804" y="735.0" type="line"/>
      <point x="20.1804" y="709.034" type="line"/>
      <point x="31.937600000000003" y="707.034" type="line" smooth="yes"/>
      <point x="89.592" y="697.08"/>
      <point x="117.89760000000001" y="691.034"/>
    </contour>
  </outline>
</glyph>
<glyph name="s" format="2">
  <advance width="513.448"/>
  <unicode hex="0073"/>
  <anchor x="255.97560000000001" y="546.0" name="top"/>
  <anchor x="255.64440000000002" y="0.0" name="bottom"/>
  <outline>
    <contour>
      <point x="424.708" y="127.23" type="curve" smooth="yes"/>
      <point x="424.708" y="61.736000000000004"/>
      <point x="361.9744" y="21.242"/>
      <point x="261.7668" y="21.242" type="curve" smooth="yes"/>
      <point x="188.978" y="21.242"/>
      <point x="131.40640000000002" y="35.426"/>
      <point x="78.8872" y="71.702" type="curve"/>
      <point x="79.798" y="60.012"/>
      <point x="85.2148" y="43.644"/>
      <point x="98.6168" y="27.276" type="curve"/>
      <point x="98.6168" y="128.518" type="line"/>
      <point x="47.1852" y="128.518" type="line"/>
      <point x="47.1852" y="44.046" type="line"/>
      <point x="96.6712" y="12.138"/>
      <point x="169.46" y="-10.0"/>
      <point x="261.6012" y="-10.0" type="curve" smooth="yes"/>
      <point x="390.67640000000006" y="-10.0"/>
      <point x="466.18" y="53.092"/>
      <point x="466.18" y="132.46" type="curve" smooth="yes"/>
      <point x="466.18" y="226.39378378348798"/>
      <point x="372.50239999999997" y="253.736"/>
      <point x="282.4136" y="278.50600000000003" type="curve" smooth="yes"/>
      <point x="197.74800000000002" y="301.276"/>
      <point x="114.7512" y="314.322"/>
      <point x="114.7512" y="389.586" type="curve" smooth="yes"/>
      <point x="114.7512" y="445.12600000000003"/>
      <point x="166.7276" y="486.758"/>
      <point x="261.8496" y="486.758" type="curve" smooth="yes"/>
      <point x="322.5068" y="486.758"/>
      <point x="369.6156" y="469.758"/>
      <point x="400.1696" y="442.43600000000004" type="curve"/>
      <point x="398.2588" y="452.356"/>
      <point x="390.4584" y="463.81600000000003"/>
      <point x="382.2312" y="471.402" type="curve"/>
      <point x="382.2312" y="394.574" type="line"/>
      <point x="433.8284" y="394.574" type="line"/>
      <point x="433.8284" y="473.046" type="line"/>
      <point x="400.6488" y="493.908"/>
      <point x="347.448" y="518.0"/>
      <point x="261.8496" y="518.0" type="curve" smooth="yes"/>
      <point x="146.654" y="518.0"/>
      <point x="73.0308" y="464.678"/>
      <point x="73.0308" y="385.264" type="curve" smooth="yes"/>
      <point x="73.0308" y="293.196971428376"/>
      <point x="163.28101164892158" y="268.60208103585603"/>
      <point x="253.6748" y="245.712" type="curve" smooth="yes"/>
      <point x="340.2968080737408" y="223.92138263670398"/>
      <point x="424.708" y="203.78117647123202"/>
    </contour>
  </outline>
</glyph>
<glyph name="thorn" format="2">
  <advance width="703.0056"/>
  <unicode hex="00FE"/>
  <outline>
    <contour>
      <point x="41.8448" y="-223.0" type="line"/>
      <point x="298.72" y="-223.0" type="line"/>
      <point x="298.72" y="-195.172" type="line"/>
      <point x="265.12" y="-195.172" type="line" smooth="yes"/>
      <point x="234.98000000000002" y="-195.172"/>
      <point x="180.62" y="-192.172"/>
      <point x="180.62" y="-185.172" type="curve"/>
      <point x="180.62" y="735.0" type="line"/>
      <point x="41.8448" y="735.0" type="line"/>
      <point x="41.8448" y="709.034" type="line"/>
      <point x="53.684799999999996" y="707.034" type="line" smooth="yes"/>
      <point x="111.5048" y="697.034"/>
      <point x="139.7276" y="691.034"/>
      <point x="139.7276" y="662.034" type="curve" smooth="yes"/>
      <point x="139.7276" y="-159.172" type="line" smooth="yes"/>
      <point x="139.7276" y="-188.172"/>
      <point x="100.1248" y="-195.172"/>
      <point x="44.3048" y="-195.172" type="curve"/>
      <point x="41.8448" y="-195.172" type="line"/>
    </contour>
    <contour>
      <point x="608.25" y="257.0" type="curve" smooth="yes"/>
      <point x="608.25" y="115.736"/>
      <point x="534.8052" y="21.242"/>
      <point x="396.7096" y="21.242" type="curve" smooth="yes"/>
      <point x="297.1644" y="21.242"/>
      <point x="223.4648" y="85.506"/>
      <point x="173.89600000000002" y="183.552" type="curve"/>
      <point x="152.8288" y="162.506" type="line"/>
      <point x="214.0784" y="51.678"/>
      <point x="283.318" y="-10.0"/>
      <point x="400.1696" y="-10.0" type="curve" smooth="yes"/>
      <point x="552.0047999999999" y="-10.0"/>
      <point x="652.4368" y="99.0"/>
      <point x="652.4368" y="257.0" type="curve" smooth="yes"/>
      <point x="652.4368" y="414.0"/>
      <point x="557.0904" y="518.0"/>
      <point x="409.7152" y="518.0" type="curve" smooth="yes"/>
      <point x="283.73839999999996" y="518.0"/>
      <point x="214.49880000000002" y="448.46"/>
      <point x="142.3724" y="337.632" type="curve"/>
      <point x="158.6484" y="310.81600000000003" type="line"/>
      <point x="223.4648" y="414.632"/>
      <point x="296.916" y="486.758"/>
      <point x="402.7952" y="486.758" type="curve" smooth="yes"/>
      <point x="537.4308000000001" y="486.758"/>
      <point x="608.25" y="398.218"/>
    </contour>
  </outline>
</glyph>
<glyph name="dcroat" format="2">
  <advance width="684.4636"/>
  <unicode hex="0111"/>
  <outline>
    <contour>
      <point x="94.83840000000001" y="250.0" type="curve" smooth="yes"/>
      <point x="94.83840000000001" y="391.356"/>
      <point x="173.5344" y="486.758"/>
      <point x="311.0872" y="486.758" type="curve" smooth="yes"/>
      <point x="410.7152" y="486.758"/>
      <point x="482.1664" y="422.632"/>
      <point x="529.2752" y="324.448" type="curve"/>
      <point x="550.3424" y="345.49399999999997" type="line"/>
      <point x="491.47" y="456.368"/>
      <point x="425.02160000000003" y="518.0"/>
      <point x="307.6272" y="518.0" type="curve" smooth="yes"/>
      <point x="155.7092" y="518.0"/>
      <point x="50.6516" y="408.046"/>
      <point x="50.6516" y="250.0" type="curve" smooth="yes"/>
      <point x="50.6516" y="93.04599999999999"/>
      <point x="143.584" y="-10.0"/>
      <point x="290.9592" y="-10.0" type="curve" smooth="yes"/>
      <point x="416.3932" y="-10.0"/>
      <point x="488.424" y="59.54"/>
      <point x="560.7988" y="170.368" type="curve"/>
      <point x="544.44" y="197.138" type="line"/>
      <point x="479.45799999999997" y="93.322"/>
      <point x="403.1328" y="21.242"/>
      <point x="297.87919999999997" y="21.242" type="curve" smooth="yes"/>
      <point x="163.24360000000001" y="21.242"/>
      <point x="94.83840000000001" y="108.828"/>
    </contour>
    <contour>
      <point x="522.9284" y="735.0" type="line"/>
      <point x="522.9284" y="136.942" type="line"/>
      <point x="522.0176" y="132.034" type="line"/>
      <point x="522.0176" y="0.0" type="line"/>
      <point x="661.2436" y="0.0" type="line"/>
      <point x="661.2436" y="27.828" type="line"/>
      <point x="660.2436" y="27.828" type="line"/>
      <point x="604.4236000000001" y="27.828"/>
      <point x="563.9036000000001" y="34.827999999999996"/>
      <point x="563.9036000000001" y="63.827999999999996" type="curve" smooth="yes"/>
      <point x="563.9036000000001" y="735.0" type="line"/>
    </contour>
    <contour>
      <point x="676.8812" y="632.046" type="line"/>
      <point x="280.44399999999996" y="632.046" type="line"/>
      <point x="280.44399999999996" y="601.034" type="line"/>
      <point x="676.8812" y="601.034" type="line"/>
    </contour>
  </outline>
</glyph>
<glyph name="dotlessi" format="2">
  <advance width="318.6088"/>
  <unicode hex="0131"/>
  <anchor x="158.0624" y="526.184" name="top"/>
  <outline>
    <contour>
      <point x="178.8812" y="508.0" type="line"/>
      <point x="40.1888" y="508.0" type="line"/>
      <point x="40.1888" y="482.034" type="line"/>
      <point x="51.946" y="480.034" type="line" smooth="yes"/>
      <point x="109.60040000000001" y="470.08"/>
      <point x="137.906" y="464.034"/>
      <point x="137.906" y="435.034" type="curve" smooth="yes"/>
      <point x="137.906" y="63.827999999999996" type="line" smooth="yes"/>
      <point x="137.906" y="34.827999999999996"/>
      <point x="98.4688" y="27.828"/>
      <point x="42.6488" y="27.828" type="curve" smooth="yes"/>
      <point x="40.0232" y="27.828" type="line"/>
      <point x="40.0232" y="0.0" type="line"/>
      <point x="276.1384" y="0.0" type="line"/>
      <point x="276.1384" y="27.828" type="line"/>
      <point x="273.5956" y="27.828" type="line" smooth="yes"/>
      <point x="218.3184" y="27.828"/>
      <point x="178.8812" y="34.827999999999996"/>
      <point x="178.8812" y="63.827999999999996" type="curve" smooth="yes"/>
    </contour>
  </outline>
</glyph>
<glyph name="Schwa" format="2">
  <advance width="784.2508"/>
  <unicode hex="018F"/>
  <outline>
    <contour>
      <point x="380.5752" y="720.0" type="curve" smooth="yes"/>
      <point x="232.2" y="720.0"/>
      <point x="125.3972" y="655.54"/>
      <point x="56.24040000000001" y="562.7239999999999" type="curve"/>
      <point x="81.9856" y="538.034" type="line"/>
      <point x="137.0908" y="615.482"/>
      <point x="230.9644" y="688.62"/>
      <point x="380.90639999999996" y="688.62" type="curve" smooth="yes"/>
      <point x="565.7732000000001" y="688.62"/>
      <point x="689.4492" y="569.111798657728"/>
      <point x="689.4492" y="359.81600000000003" type="curve" smooth="yes"/>
      <point x="689.4492" y="149.309520423404"/>
      <point x="570.2267999999999" y="20.426000000000002"/>
      <point x="390.28639999999996" y="20.426000000000002" type="curve" smooth="yes"/>
      <point x="205.5024" y="20.426000000000002"/>
      <point x="103.110314913568" y="126.785069244844"/>
      <point x="98.59280000000001" y="347.586" type="curve"/>
      <point x="73.4924" y="336.08" type="line"/>
      <point x="711.5688" y="336.08" type="line"/>
      <point x="710.1916" y="367.46" type="line"/>
      <point x="54.36" y="367.46" type="line"/>
      <point x="56.90107052233608" y="119.938029843464"/>
      <point x="176.2144" y="-10.954"/>
      <point x="390.28639999999996" y="-10.954" type="curve" smooth="yes"/>
      <point x="592.098" y="-10.954"/>
      <point x="729.4308000000001" y="140.012637362604"/>
      <point x="729.4308000000001" y="357.046" type="curve" smooth="yes"/>
      <point x="729.4308000000001" y="579.004775956256"/>
      <point x="587.81" y="720.0"/>
    </contour>
  </outline>
</glyph>
<glyph name="emdash" format="2">
  <advance width="1076.6784"/>
  <unicode hex="2014"/>
  <outline>
    <contour>
      <point x="80.1292" y="330.69" type="line"/>
      <point x="80.1292" y="299.31" type="line"/>
      <point x="996.632" y="299.31" type="line"/>
      <point x="996.632" y="330.69" type="line"/>
    </contour>
  </outline>
</glyph>
<glyph name="naira" format="2">
  <advance width="650.1600000000001"/>
  <unicode hex="20A6"/>
  <outline>
    <contour>
      <point x="118.3244" y="701.7239999999999" type="line"/>
      <point x="509.2128" y="0.0" type="line"/>
      <point x="554.1512" y="0.0" type="line"/>
      <point x="554.1512" y="638.218" type="line" smooth="yes"/>
      <point x="554.1512" y="667.218"/>
      <point x="583.2912" y="679.218"/>
      <point x="624.0596" y="679.218" type="curve" smooth="yes"/>
      <point x="637.9824" y="679.218" type="line"/>
      <point x="637.9824" y="710.0" type="line"/>
      <point x="413.6896" y="710.0" type="line"/>
      <point x="413.6896" y="679.218" type="line"/>
      <point x="430.0724" y="679.218" type="line"/>
      <point x="466.1324" y="679.218"/>
      <point x="520.5688" y="671.218"/>
      <point x="520.5688" y="664.218" type="curve" smooth="yes"/>
      <point x="520.5688" y="27.368000000000002" type="line"/>
      <point x="520.3856000000001" y="41.942" type="line"/>
      <point x="156.08159999999998" y="710.0" type="line"/>
      <point x="12.1776" y="710.0" type="line"/>
      <point x="12.1776" y="679.218" type="line"/>
      <point x="25.0176" y="679.218" type="line" smooth="yes"/>
      <point x="65.786" y="679.218"/>
      <point x="94.926" y="672.218"/>
      <point x="94.926" y="643.218" type="curve" smooth="yes"/>
      <point x="94.926" y="71.782" type="line" smooth="yes"/>
      <point x="94.926" y="42.782000000000004"/>
      <point x="65.786" y="30.782"/>
      <point x="25.0176" y="30.782" type="curve" smooth="yes"/>
      <point x="12.1776" y="30.782" type="line"/>
      <point x="12.1776" y="0.0" type="line"/>
      <point x="236.4704" y="0.0" type="line"/>
      <point x="236.4704" y="30.782" type="line"/>
      <point x="220.0876" y="30.782" type="line" smooth="yes"/>
      <point x="184.0276" y="30.782"/>
      <point x="129.59120000000001" y="38.782000000000004"/>
      <point x="129.59120000000001" y="45.782000000000004" type="curve" smooth="yes"/>
      <point x="129.59120000000001" y="705.54" type="line"/>
    </contour>
    <contour>
      <point x="120.2812" y="440.82800000000003" type="line"/>
      <point x="6.2576" y="440.82800000000003" type="line"/>
      <point x="6.2576" y="409.81600000000003" type="line"/>
      <point x="112.86439999999999" y="409.81600000000003" type="line"/>
    </contour>
    <contour>
      <point x="297.8204" y="409.81600000000003" type="line"/>
      <point x="524.922" y="409.81600000000003" type="line"/>
      <point x="531.6828" y="409.81600000000003" type="line"/>
      <point x="643.9024000000001" y="409.81600000000003" type="line"/>
      <point x="643.9024000000001" y="440.82800000000003" type="line"/>
      <point x="287.6952" y="440.82800000000003" type="line"/>
    </contour>
    <contour>
      <point x="543.8016" y="250.816" type="line"/>
      <point x="643.9024000000001" y="250.816" type="line"/>
      <point x="643.9024000000001" y="281.82800000000003" type="line"/>
      <point x="543.636" y="281.82800000000003" type="line"/>
    </contour>
    <contour>
      <point x="379.5928" y="281.82800000000003" type="line"/>
      <point x="122.99600000000001" y="281.82800000000003" type="line"/>
      <point x="113.444" y="281.82800000000003" type="line"/>
      <point x="6.2576" y="281.82800000000003" type="line"/>
      <point x="6.2576" y="250.816" type="line"/>
      <point x="391.69399999999996" y="250.816" type="line"/>
    </contour>
  </outline>
</glyph>
<glyph name="kip" format="2">
  <advance width="650.1600000000001"/>
  <unicode hex="20AD"/>
  <outline>
    <contour>
      <point x="36.256" y="386.50600000000003" type="line"/>
      <point x="36.256" y="355.49399999999997" type="line"/>
      <point x="568.1264" y="355.49399999999997" type="line"/>
      <point x="568.1264" y="386.50600000000003" type="line"/>
    </contour>
    <contour>
      <point x="36.256" y="0.0" type="line"/>
      <point x="303.6816" y="0.0" type="line" smooth="yes"/>
      <point x="303.6816" y="30.782" type="line" smooth="yes"/>
      <point x="293.3016" y="30.782" type="line" smooth="yes"/>
      <point x="249.49360000000001" y="30.782"/>
      <point x="192.1832" y="33.782000000000004"/>
      <point x="192.1832" y="40.782000000000004" type="curve" smooth="yes"/>
      <point x="192.1832" y="669.218" type="line" smooth="yes"/>
      <point x="192.1832" y="676.218"/>
      <point x="249.49360000000001" y="679.218"/>
      <point x="293.3016" y="679.218" type="curve" smooth="yes"/>
      <point x="303.6816" y="679.218" type="line" smooth="yes"/>
      <point x="303.6816" y="710.0" type="line" smooth="yes"/>
      <point x="36.256" y="710.0" type="line"/>
      <point x="36.256" y="679.218" type="line"/>
      <point x="49.096000000000004" y="679.218" type="line" smooth="yes"/>
      <point x="108.51224" y="679.218"/>
      <point x="151.3736" y="672.218"/>
      <point x="151.3736" y="643.218" type="curve" smooth="yes"/>
      <point x="151.3736" y="66.782" type="line" smooth="yes"/>
      <point x="151.3736" y="37.782000000000004"/>
      <point x="108.51224" y="30.782"/>
      <point x="49.096000000000004" y="30.782" type="curve" smooth="yes"/>
      <point x="36.256" y="30.782" type="line"/>
    </contour>
    <contour>
      <point x="649.1076" y="30.782" type="line"/>
      <point x="635.688" y="30.782" type="line" smooth="yes"/>
      <point x="590.5488" y="30.782"/>
      <point x="570.9544" y="33.874"/>
      <point x="546.3204000000001" y="63.782000000000004" type="curve" smooth="yes"/>
      <point x="291.04200000000003" y="383.058" type="line"/>
      <point x="281.3308" y="358.092" type="line"/>
      <point x="542.0563999999999" y="650.218" type="line" smooth="yes"/>
      <point x="562.0648" y="673.218"/>
      <point x="584.4504" y="679.218"/>
      <point x="620.1268" y="679.218" type="curve" smooth="yes"/>
      <point x="639.4664" y="679.218" type="line"/>
      <point x="639.4664" y="710.0" type="line"/>
      <point x="410.39520000000005" y="710.0" type="line"/>
      <point x="410.39520000000005" y="679.218" type="line"/>
      <point x="420.858" y="679.218" type="line" smooth="yes"/>
      <point x="464.99719999999996" y="679.218"/>
      <point x="513.0168000000001" y="676.218"/>
      <point x="515.5596" y="669.218" type="curve"/>
      <point x="247.9968" y="367.0" type="line"/>
      <point x="261.2876" y="361.49399999999997" type="line"/>
      <point x="520.0068" y="40.782000000000004" type="line"/>
      <point x="520.0068" y="33.782000000000004"/>
      <point x="463.862" y="30.782"/>
      <point x="419.8056" y="30.782" type="curve" smooth="yes"/>
      <point x="409.5084" y="30.782" type="line"/>
      <point x="409.5084" y="0.0" type="line"/>
      <point x="649.1076" y="0.0" type="line"/>
    </contour>
  </outline>
</glyph>
<glyph name="cedi" format="2">
  <advance width="650.1600000000001"/>
  <unicode hex="20B5"/>
  <outline>
    <contour>
      <point x="382.64520000000005" y="700.0" type="curve" smooth="yes"/>
      <point x="184.9496" y="700.0"/>
      <point x="48.6756" y="574.7239999999999"/>
      <point x="48.6756" y="355.0" type="curve" smooth="yes"/>
      <point x="48.6756" y="149.54"/>
      <point x="174.237138790068" y="10.0"/>
      <point x="360.6368" y="10.0" type="curve" smooth="yes"/>
      <point x="508.7038008510744" y="10.0"/>
      <point x="588.0071689768585" y="94.8592196209052"/>
      <point x="621.8176" y="219.46" type="curve"/>
      <point x="590.318" y="236.104" type="line"/>
      <point x="564.053314543564" y="126.64078126177999"/>
      <point x="498.0155712574176" y="41.472"/>
      <point x="359.9744" y="41.472" type="curve" smooth="yes"/>
      <point x="193.67615238100322" y="41.472"/>
      <point x="92.44839999999999" y="165.41400000000002"/>
      <point x="92.44839999999999" y="355.0" type="curve" smooth="yes"/>
      <point x="92.44839999999999" y="561.9879999999999"/>
      <point x="208.2348" y="668.7579999999999"/>
      <point x="382.64520000000005" y="668.7579999999999" type="curve" smooth="yes"/>
      <point x="483.356" y="668.7579999999999"/>
      <point x="545.6756" y="637.436"/>
      <point x="576.1468" y="600.528" type="curve"/>
      <point x="593.2748" y="588.046"/>
      <point x="598.0072" y="632.54"/>
      <point x="552.7852" y="644.896" type="curve"/>
      <point x="552.7852" y="538.62" type="line"/>
      <point x="603.3888" y="538.62" type="line"/>
      <point x="603.3888" y="632.046" type="line"/>
      <point x="565.2524000000001" y="664.494"/>
      <point x="482.332" y="700.0"/>
    </contour>
    <contour>
      <point x="332.57320000000004" y="790.0" type="line"/>
      <point x="332.57320000000004" y="686.586" type="line"/>
      <point x="332.57320000000004" y="679.494" type="line"/>
      <point x="332.57320000000004" y="31.92" type="line"/>
      <point x="332.57320000000004" y="24.598" type="line"/>
      <point x="332.57320000000004" y="-120.0" type="line"/>
      <point x="371.36080000000004" y="-120.0" type="line"/>
      <point x="371.36080000000004" y="26.598" type="line"/>
      <point x="371.36080000000004" y="31.736" type="line"/>
      <point x="371.36080000000004" y="678.678" type="line"/>
      <point x="371.36080000000004" y="685.7239999999999" type="line"/>
      <point x="371.36080000000004" y="790.0" type="line"/>
    </contour>
  </outline>
</glyph>
<glyph name="uni20B8" format="2">
  <advance width="650.1600000000001"/>
  <unicode hex="20B8"/>
  <outline>
    <contour>
      <point x="304.75800000000004" y="66.782" type="line" smooth="yes"/>
      <point x="304.75800000000004" y="37.782000000000004"/>
      <point x="262.778" y="30.782"/>
      <point x="205.958" y="30.782" type="curve" smooth="yes"/>
      <point x="187.65800000000002" y="30.782" type="line"/>
      <point x="187.65800000000002" y="0.0" type="line"/>
      <point x="462.33639999999997" y="0.0" type="line"/>
      <point x="462.33639999999997" y="30.782" type="line"/>
      <point x="444.1192" y="30.782" type="line" smooth="yes"/>
      <point x="387.2992" y="30.782"/>
      <point x="345.3192" y="37.782000000000004"/>
      <point x="345.3192" y="66.782" type="curve" smooth="yes"/>
      <point x="345.3192" y="533.804" type="line"/>
      <point x="413.3344" y="533.804" type="line" smooth="yes"/>
      <point x="514.2108000000001" y="533.804"/>
      <point x="555.7308" y="526.804"/>
      <point x="559.108" y="490.804" type="curve" smooth="yes"/>
      <point x="570.0308" y="392.804" type="line"/>
      <point x="596.8588" y="392.804" type="line"/>
      <point x="596.8588" y="564.908" type="line"/>
      <point x="53.3012" y="564.908" type="line"/>
      <point x="53.3012" y="392.804" type="line"/>
      <point x="80.1292" y="392.804" type="line"/>
      <point x="91.052" y="490.804" type="line" smooth="yes"/>
      <point x="94.42920000000001" y="526.804"/>
      <point x="135.9492" y="533.804"/>
      <point x="236.8256" y="533.804" type="curve" smooth="yes"/>
      <point x="304.75800000000004" y="533.804" type="line"/>
    </contour>
    <contour>
      <point x="53.3012" y="710.0" type="line"/>
      <point x="53.3012" y="678.9879999999999" type="line"/>
      <point x="596.8588" y="678.9879999999999" type="line"/>
      <point x="596.8588" y="710.0" type="line"/>
    </contour>
  </outline>
</glyph>
<glyph name="uni25C3" format="2">
  <advance width="888.28"/>
  <unicode hex="25C3"/>
  <outline>
    <contour>
      <point x="818.62" y="-40.0" type="line"/>
      <point x="818.62" y="754.0" type="line"/>
      <point x="23.22" y="357.0" type="line"/>
    </contour>
    <contour>
      <point x="745.5" y="54.0" type="line"/>
      <point x="767.26" y="62.0" type="line"/>
      <point x="166.0" y="363.0" type="line"/>
      <point x="166.0" y="351.0" type="line"/>
      <point x="767.26" y="652.0" type="line"/>
      <point x="745.5" y="660.0" type="line"/>
    </contour>
  </outline>
</glyph>
<glyph name="Omega" format="2">
  <advance width="875.5704000000001"/>
  <unicode hex="A7B6"/>
  <outline>
    <contour>
      <point x="437.78520000000003" y="720.0" type="curve" smooth="yes"/>
      <point x="632.6855609755937" y="720.0"/>
      <point x="775.4328" y="592.908"/>
      <point x="775.4328" y="438.586" type="curve" smooth="yes"/>
      <point x="775.4328" y="277.954"/>
      <point x="677.9752" y="184.574"/>
      <point x="500.09360000000004" y="11.655999999999999" type="curve"/>
      <point x="504.8848" y="31.932000000000002" type="line"/>
      <point x="631.6895999999999" y="31.932000000000002" type="line" smooth="yes"/>
      <point x="733.0628" y="31.932000000000002"/>
      <point x="775.8708" y="38.932"/>
      <point x="779.248" y="74.932" type="curve" smooth="yes"/>
      <point x="789.5452" y="180.552" type="line"/>
      <point x="817.2904" y="180.552" type="line"/>
      <point x="817.2904" y="0.0" type="line"/>
      <point x="490.7376" y="0.0" type="line"/>
      <point x="490.7376" y="44.794" type="line"/>
      <point x="643.3992000000001" y="193.632"/>
      <point x="730.6204" y="266.50600000000003"/>
      <point x="730.6204" y="438.586" type="curve" smooth="yes"/>
      <point x="730.6204" y="592.034"/>
      <point x="613.3596340424792" y="688.62"/>
      <point x="437.78520000000003" y="688.62" type="curve" smooth="yes"/>
      <point x="262.2935659575208" y="688.62"/>
      <point x="145.0328" y="592.034"/>
      <point x="145.0328" y="438.586" type="curve" smooth="yes"/>
      <point x="145.0328" y="266.50600000000003"/>
      <point x="232.254" y="193.632"/>
      <point x="384.9984" y="44.794" type="curve"/>
      <point x="384.9984" y="0.0" type="line"/>
      <point x="58.28" y="0.0" type="line"/>
      <point x="58.28" y="180.552" type="line"/>
      <point x="86.108" y="180.552" type="line"/>
      <point x="96.40520000000001" y="74.932" type="line" smooth="yes"/>
      <point x="99.7824" y="38.932"/>
      <point x="142.59040000000002" y="31.932000000000002"/>
      <point x="243.96359999999999" y="31.932000000000002" type="curve" smooth="yes"/>
      <point x="370.76840000000004" y="31.932000000000002" type="line"/>
      <point x="375.55960000000005" y="11.655999999999999" type="line"/>
      <point x="197.678" y="184.574"/>
      <point x="100.22040000000001" y="277.954"/>
      <point x="100.22040000000001" y="438.586" type="curve" smooth="yes"/>
      <point x="100.22040000000001" y="592.908"/>
      <point x="242.96763902440637" y="720.0"/>
    </contour>
  </outline>
</glyph>
<glyph name="Euro.proportional" format="2">
  <advance width="685.1212"/>
  <outline>
    <contour>
      <point x="30.554000000000002" y="437.736" type="line"/>
      <point x="30.554000000000002" y="406.54" type="line"/>
      <point x="453.0916" y="406.54" type="line"/>
      <point x="453.0916" y="437.736" type="line"/>
    </contour>
    <contour>
      <point x="30.554000000000002" y="286.322" type="line"/>
      <point x="30.554000000000002" y="255.126" type="line"/>
      <point x="408.8936" y="255.126" type="line"/>
      <point x="408.8936" y="286.322" type="line"/>
    </contour>
    <contour>
      <point x="169.8324" y="349.276" type="curve"/>
      <point x="169.8324" y="597.2860000000001"/>
      <point x="292.13120000000004" y="687.574"/>
      <point x="439.8376" y="687.574" type="curve" smooth="yes"/>
      <point x="508.3384" y="687.574"/>
      <point x="579.1576" y="665.436"/>
      <point x="612.4264000000001" y="623.16" type="curve"/>
      <point x="617.1808000000001" y="631.126"/>
      <point x="603.9508000000001" y="662.77"/>
      <point x="588.1476" y="664.7239999999999" type="curve"/>
      <point x="588.1476" y="570.102" type="line"/>
      <point x="638.5856" y="570.102" type="line"/>
      <point x="638.5856" y="654.184" type="line"/>
      <point x="611.2368" y="683.862"/>
      <point x="528.5712" y="719.046"/>
      <point x="439.8376" y="719.046" type="curve" smooth="yes"/>
      <point x="266.22040000000004" y="719.046"/>
      <point x="126.308" y="612.068"/>
      <point x="126.308" y="349.276" type="curve"/>
      <point x="126.308" y="103.65599999999999"/>
      <point x="247.2966763158592" y="-10.0"/>
      <point x="415.9488" y="-10.0" type="curve" smooth="yes"/>
      <point x="540.8716279069961" y="-10.0"/>
      <point x="609.6674431664703" y="53.5705814788696"/>
      <point x="650.6868000000001" y="140.094" type="curve"/>
      <point x="621.73" y="157.37" type="line"/>
      <point x="589.338484183008" y="87.399685682024"/>
      <point x="532.8095036649232" y="21.472"/>
      <point x="415.2864" y="21.472" type="curve" smooth="yes"/>
      <point x="270.48169142864236" y="21.472"/>
      <point x="169.8324" y="117.622"/>
    </contour>
  </outline>
</glyph>
<glyph name="breve.uc" format="2">
  <advance width="580.4172"/>
  <anchor x="294.2712" y="694.0" name="_top"/>
  <outline>
    <contour>
      <point x="294.2712" y="759.0" type="curve" smooth="yes"/>
      <point x="202.9708" y="759.0"/>
      <point x="148.7304" y="808.0"/>
      <point x="143.68439999999998" y="891.3679999999999" type="curve"/>
      <point x="174.5584" y="891.3679999999999" type="line"/>
      <point x="184.8556" y="827.92"/>
      <point x="220.2468" y="800.38"/>
      <point x="293.94" y="800.38" type="curve" smooth="yes"/>
      <point x="367.1732" y="800.38"/>
      <point x="404.9784" y="827.92"/>
      <point x="415.7356" y="891.3679999999999" type="curve"/>
      <point x="444.48080000000004" y="891.3679999999999" type="line"/>
      <point x="439.4348" y="808.0"/>
      <point x="385.1116" y="759.0"/>
    </contour>
  </outline>
</glyph>
<glyph name="eight.old" format="2">
  <advance width="650.1600000000001"/>
  <outline>
    <contour>
      <point x="325.08000000000004" y="-10.0" type="curve" smooth="yes"/>
      <point x="466.9556" y="-10.0"/>
      <point x="588.2239999999999" y="72.1151155778888"/>
      <point x="588.2239999999999" y="192.0" type="curve" smooth="yes"/>
      <point x="588.2239999999999" y="312.046"/>
      <point x="462.5784" y="387.046"/>
      <point x="325.08000000000004" y="387.046" type="curve" smooth="yes"/>
      <point x="187.58159999999998" y="387.046"/>
      <point x="61.936" y="312.046"/>
      <point x="61.936" y="192.0" type="curve" smooth="yes"/>
      <point x="61.936" y="72.1151155778888"/>
      <point x="183.2044" y="-10.0"/>
    </contour>
    <contour>
      <point x="325.08000000000004" y="360.356" type="curve" smooth="yes"/>
      <point x="447.37879999999996" y="360.356"/>
      <point x="544.4512" y="299.598040268436"/>
      <point x="544.4512" y="197.0" type="curve" smooth="yes"/>
      <point x="544.4512" y="88.985166666636"/>
      <point x="447.37879999999996" y="21.38"/>
      <point x="325.08000000000004" y="21.38" type="curve" smooth="yes"/>
      <point x="202.7812" y="21.38"/>
      <point x="105.7088" y="88.985166666636"/>
      <point x="105.7088" y="197.0" type="curve" smooth="yes"/>
      <point x="105.7088" y="299.598040268436"/>
      <point x="202.7812" y="360.356"/>
    </contour>
    <contour>
      <point x="325.08000000000004" y="368.046" type="curve" smooth="yes"/>
      <point x="441.7356" y="368.046"/>
      <point x="548.0352" y="435.046"/>
      <point x="548.0352" y="543.0" type="curve" smooth="yes"/>
      <point x="548.0352" y="647.975466666636"/>
      <point x="441.769569230748" y="720.0"/>
      <point x="325.08000000000004" y="720.0" type="curve" smooth="yes"/>
      <point x="208.39043076925202" y="720.0"/>
      <point x="102.1248" y="647.975466666636"/>
      <point x="102.1248" y="543.0" type="curve" smooth="yes"/>
      <point x="102.1248" y="435.046"/>
      <point x="208.4244" y="368.046"/>
    </contour>
    <contour>
      <point x="325.08000000000004" y="688.62" type="curve" smooth="yes"/>
      <point x="428.47501437908494" y="688.62"/>
      <point x="505.6" y="630.050276923084"/>
      <point x="505.6" y="537.77" type="curve" smooth="yes"/>
      <point x="505.6" y="447.404220472404"/>
      <point x="422.0285385620914" y="391.644"/>
      <point x="325.08000000000004" y="391.644" type="curve" smooth="yes"/>
      <point x="228.1314614379085" y="391.644"/>
      <point x="144.56" y="447.404220472404"/>
      <point x="144.56" y="537.77" type="curve" smooth="yes"/>
      <point x="144.56" y="630.050276923084"/>
      <point x="221.68498562091509" y="688.62"/>
    </contour>
  </outline>
</glyph>
<glyph name="f_f_h.alt" format="2">
  <advance width="1471.8736000000001"/>
  <outline>
    <contour>
      <point x="202.184" y="37.827999999999996" type="curve" smooth="yes"/>
      <point x="202.184" y="558.586" type="line" smooth="yes"/>
      <point x="202.184" y="669.482"/>
      <point x="290.6584" y="700.804"/>
      <point x="392.5936" y="700.804" type="curve" smooth="yes"/>
      <point x="465.35200000000003" y="700.804"/>
      <point x="529.0856" y="682.482"/>
      <point x="569.1852" y="635.3439999999999" type="curve"/>
      <point x="575.1944" y="677.298"/>
      <point x="561.5504000000001" y="680.506"/>
      <point x="539.4896" y="690.9879999999999" type="curve"/>
      <point x="539.4896" y="567.85" type="line"/>
      <point x="578.336" y="617.85" type="line"/>
      <point x="578.336" y="680.31" type="line"/>
      <point x="546.6992" y="706.448"/>
      <point x="484.7044" y="732.0"/>
      <point x="392.5936" y="732.0" type="curve" smooth="yes"/>
      <point x="261.5884" y="732.0"/>
      <point x="161.2088" y="686.08"/>
      <point x="161.2088" y="558.586" type="curve" smooth="yes"/>
      <point x="161.2088" y="63.827999999999996" type="line"/>
      <point x="161.2088" y="34.827999999999996"/>
      <point x="122.6888" y="27.828"/>
      <point x="58.948800000000006" y="27.828" type="curve" smooth="yes"/>
      <point x="46.1088" y="27.828" type="line"/>
      <point x="46.1088" y="0.0" type="line"/>
      <point x="329.93640000000005" y="0.0" type="line"/>
      <point x="329.93640000000005" y="27.828" type="line"/>
      <point x="314.02" y="27.828" type="line" smooth="yes"/>
      <point x="250.36919999999998" y="27.828"/>
      <point x="202.184" y="30.828"/>
    </contour>
    <contour>
      <point x="539.4896" y="37.827999999999996" type="line"/>
      <point x="539.4896" y="30.828"/>
      <point x="491.30440000000004" y="27.828"/>
      <point x="428.31600000000003" y="27.828" type="curve" smooth="yes"/>
      <point x="424.3896" y="27.828" type="line"/>
      <point x="424.3896" y="0.0" type="line"/>
      <point x="707.104" y="0.0" type="line"/>
      <point x="707.104" y="27.828" type="line"/>
      <point x="691.7212000000001" y="27.828" type="line" smooth="yes"/>
      <point x="628.3188" y="27.828"/>
      <point x="580.4648" y="30.828"/>
      <point x="580.4648" y="37.827999999999996" type="curve"/>
      <point x="580.4648" y="594.85" type="line" smooth="yes"/>
      <point x="580.4648" y="693.9879999999999"/>
      <point x="636.2848" y="720.804"/>
      <point x="750.9056" y="720.804" type="curve" smooth="yes"/>
      <point x="818.3604" y="720.804"/>
      <point x="886.5540000000001" y="705.712"/>
      <point x="941.8708" y="670.7" type="curve"/>
      <point x="950.2048" y="710.448" type="line"/>
      <point x="907.2248000000001" y="727.184"/>
      <point x="843.4848" y="752.0"/>
      <point x="750.6572" y="752.0" type="curve" smooth="yes"/>
      <point x="617.5120000000001" y="752.0"/>
      <point x="539.4896" y="709.046"/>
      <point x="539.4896" y="594.85" type="curve"/>
    </contour>
    <contour>
      <point x="1300.4616" y="37.827999999999996" type="line" smooth="yes"/>
      <point x="1300.4616" y="30.828"/>
      <point x="1248.1016" y="27.828"/>
      <point x="1215.5016" y="27.828" type="curve" smooth="yes"/>
      <point x="1212.9587999999999" y="27.828" type="line"/>
      <point x="1212.9587999999999" y="0.0" type="line"/>
      <point x="1438.694" y="0.0" type="line"/>
      <point x="1438.694" y="27.828" type="line"/>
      <point x="1436.234" y="27.828" type="line" smooth="yes"/>
      <point x="1380.874" y="27.828"/>
      <point x="1341.4368" y="34.827999999999996"/>
      <point x="1341.4368" y="63.827999999999996" type="curve" smooth="yes"/>
      <point x="1341.4368" y="357.0" type="line" smooth="yes"/>
      <point x="1341.4368" y="468.0"/>
      <point x="1278.1476" y="518.0"/>
      <point x="1170.8416" y="518.0" type="curve" smooth="yes"/>
      <point x="1068.658" y="518.0"/>
      <point x="996.124" y="467.678"/>
      <point x="923.7492" y="364.988" type="curve"/>
      <point x="933.4364" y="334.264" type="line"/>
      <point x="996.2132" y="427.08"/>
      <point x="1067.4988" y="483.62"/>
      <point x="1163.2068" y="483.62" type="curve" smooth="yes"/>
      <point x="1264.3252" y="483.62"/>
      <point x="1300.4616" y="441.034"/>
      <point x="1300.4616" y="346.0" type="curve" smooth="yes"/>
    </contour>
    <contour>
      <point x="820.596" y="0.0" type="line"/>
      <point x="1046.2484" y="0.0" type="line"/>
      <point x="1046.2484" y="27.828" type="line"/>
      <point x="1042.7884" y="27.828" type="line" smooth="yes"/>
      <point x="1010.1884" y="27.828"/>
      <point x="959.2884" y="30.828"/>
      <point x="959.2884" y="37.827999999999996" type="curve"/>
      <point x="959.2884" y="735.0" type="line"/>
      <point x="857.9744000000001" y="735.0" type="line"/>
      <point x="918.3132" y="703.2760000000001" type="line"/>
      <point x="918.3132" y="37.827999999999996" type="line"/>
      <point x="918.3132" y="30.828"/>
      <point x="866.1188" y="27.828"/>
      <point x="833.436" y="27.828" type="curve" smooth="yes"/>
      <point x="820.596" y="27.828" type="line"/>
    </contour>
    <contour>
      <point x="40.1888" y="508.0" type="line"/>
      <point x="40.1888" y="479.62" type="line"/>
      <point x="516.222" y="479.62" type="line"/>
      <point x="516.222" y="508.0" type="line"/>
    </contour>
    <contour>
      <point x="419.0124" y="508.0" type="line"/>
      <point x="419.0124" y="479.62" type="line"/>
      <point x="769.5432000000001" y="479.62" type="line"/>
      <point x="769.5432000000001" y="508.0" type="line"/>
    </contour>
  </outline>
</glyph>
<glyph name="f_f_h" format="2">
  <advance width="1471.8736000000001"/>
  <outline>
    <contour>
      <point x="40.1888" y="508.0" type="line"/>
      <point x="40.1888" y="479.62" type="line"/>
      <point x="516.222" y="479.62" type="line"/>
      <point x="516.222" y="508.0" type="line"/>
    </contour>
    <contour>
      <point x="1300.4616" y="37.827999999999996" type="line" smooth="yes"/>
      <point x="1300.4616" y="30.828"/>
      <point x="1248.1016" y="27.828"/>
      <point x="1215.5016" y="27.828" type="curve" smooth="yes"/>
      <point x="1212.9587999999999" y="27.828" type="line"/>
      <point x="1212.9587999999999" y="0.0" type="line"/>
      <point x="1438.694" y="0.0" type="line"/>
      <point x="1438.694" y="27.828" type="line"/>
      <point x="1436.234" y="27.828" type="line" smooth="yes"/>
      <point x="1380.874" y="27.828"/>
      <point x="1341.4368" y="34.827999999999996"/>
      <point x="1341.4368" y="63.827999999999996" type="curve" smooth="yes"/>
      <point x="1341.4368" y="357.0" type="line" smooth="yes"/>
      <point x="1341.4368" y="468.0"/>
      <point x="1278.1476" y="518.0"/>
      <point x="1170.8416" y="518.0" type="curve" smooth="yes"/>
      <point x="1068.658" y="518.0"/>
      <point x="996.124" y="467.678"/>
      <point x="923.7492" y="364.988" type="curve"/>
      <point x="933.4364" y="334.264" type="line"/>
      <point x="996.2132" y="427.08"/>
      <point x="1067.4988" y="483.62"/>
      <point x="1163.2068" y="483.62" type="curve" smooth="yes"/>
      <point x="1264.3252" y="483.62"/>
      <point x="1300.4616" y="441.034"/>
      <point x="1300.4616" y="346.0" type="curve" smooth="yes"/>
    </contour>
    <contour>
      <point x="419.0124" y="508.0" type="line"/>
      <point x="419.0124" y="479.62" type="line"/>
      <point x="769.5432000000001" y="479.62" type="line"/>
      <point x="769.5432000000001" y="508.0" type="line"/>
    </contour>
    <contour>
      <point x="820.596" y="0.0" type="line"/>
      <point x="1046.2484" y="0.0" type="line"/>
      <point x="1046.2484" y="27.828" type="line"/>
      <point x="1042.7884" y="27.828" type="line" smooth="yes"/>
      <point x="1010.1884" y="27.828"/>
      <point x="959.2884" y="30.828"/>
      <point x="959.2884" y="37.827999999999996" type="curve"/>
      <point x="959.2884" y="735.0" type="line"/>
      <point x="857.9744000000001" y="735.0" type="line"/>
      <point x="918.3132" y="703.2760000000001" type="line"/>
      <point x="918.3132" y="37.827999999999996" type="line"/>
      <point x="918.3132" y="30.828"/>
      <point x="866.1188" y="27.828"/>
      <point x="833.436" y="27.828" type="curve" smooth="yes"/>
      <point x="820.596" y="27.828" type="line"/>
    </contour>
    <contour>
      <point x="161.2088" y="63.827999999999996" type="line"/>
      <point x="161.2088" y="34.827999999999996"/>
      <point x="122.6888" y="27.828"/>
      <point x="58.948800000000006" y="27.828" type="curve" smooth="yes"/>
      <point x="46.1088" y="27.828" type="line"/>
      <point x="46.1088" y="0.0" type="line"/>
      <point x="329.93640000000005" y="0.0" type="line"/>
      <point x="329.93640000000005" y="27.828" type="line"/>
      <point x="314.02" y="27.828" type="line" smooth="yes"/>
      <point x="250.36919999999998" y="27.828"/>
      <point x="202.184" y="30.828"/>
      <point x="202.184" y="37.827999999999996" type="curve"/>
      <point x="202.184" y="576.08" type="line" smooth="yes"/>
      <point x="202.184" y="675.218"/>
      <point x="245.9156" y="708.712"/>
      <point x="320.0292" y="708.712" type="curve" smooth="yes"/>
      <point x="357.42040000000003" y="708.712"/>
      <point x="387.5604" y="699.712"/>
      <point x="412.406" y="691.712" type="curve"/>
      <point x="412.406" y="727.046" type="line"/>
      <point x="391.0204" y="733.046"/>
      <point x="357.5032" y="737.046"/>
      <point x="322.6548" y="737.046" type="curve" smooth="yes"/>
      <point x="227.3084" y="737.046"/>
      <point x="161.2088" y="690.2760000000001"/>
      <point x="161.2088" y="576.08" type="curve" smooth="yes"/>
    </contour>
    <contour>
      <point x="539.4896" y="37.827999999999996" type="line"/>
      <point x="539.4896" y="30.828"/>
      <point x="491.30440000000004" y="27.828"/>
      <point x="428.31600000000003" y="27.828" type="curve" smooth="yes"/>
      <point x="424.3896" y="27.828" type="line"/>
      <point x="424.3896" y="0.0" type="line"/>
      <point x="707.104" y="0.0" type="line"/>
      <point x="707.104" y="27.828" type="line"/>
      <point x="691.7212000000001" y="27.828" type="line" smooth="yes"/>
      <point x="628.3188" y="27.828"/>
      <point x="580.4648" y="30.828"/>
      <point x="580.4648" y="37.827999999999996" type="curve"/>
      <point x="580.4648" y="594.85" type="line" smooth="yes"/>
      <point x="580.4648" y="693.9879999999999"/>
      <point x="636.2848" y="720.804"/>
      <point x="750.9056" y="720.804" type="curve" smooth="yes"/>
      <point x="818.3604" y="720.804"/>
      <point x="886.5540000000001" y="705.712"/>
      <point x="941.8708" y="670.7" type="curve"/>
      <point x="950.2048" y="710.448" type="line"/>
      <point x="907.2248000000001" y="727.184"/>
      <point x="843.4848" y="752.0"/>
      <point x="750.6572" y="752.0" type="curve" smooth="yes"/>
      <point x="617.5120000000001" y="752.0"/>
      <point x="539.4896" y="709.046"/>
      <point x="539.4896" y="594.85" type="curve"/>
    </contour>
  </outline>
</glyph>
<glyph name="f_j" format="2">
  <advance width="693.436"/>
  <outline>
    <contour>
      <point x="541.518" y="655.2520000000001" type="curve" smooth="yes"/>
      <point x="566.8732" y="655.2520000000001"/>
      <point x="585.6396" y="669.666"/>
      <point x="585.6396" y="696.218" type="curve" smooth="yes"/>
      <point x="585.6396" y="722.7239999999999"/>
      <point x="566.8732" y="737.138"/>
      <point x="541.518" y="737.138" type="curve" smooth="yes"/>
      <point x="516.2456" y="737.138"/>
      <point x="497.4792" y="722.7239999999999"/>
      <point x="497.4792" y="696.218" type="curve" smooth="yes"/>
      <point x="497.4792" y="669.666"/>
      <point x="516.2456" y="655.2520000000001"/>
    </contour>
    <contour>
      <point x="40.1888" y="508.0" type="line"/>
      <point x="40.1888" y="479.62" type="line"/>
      <point x="509.59799999999996" y="479.62" type="line"/>
      <point x="509.59799999999996" y="508.0" type="line"/>
    </contour>
    <contour>
      <point x="539.4896" y="-73.62" type="line" smooth="yes"/>
      <point x="539.4896" y="-170.712"/>
      <point x="493.0496" y="-202.62"/>
      <point x="418.6812" y="-202.62" type="curve" smooth="yes"/>
      <point x="374.7904" y="-202.62"/>
      <point x="342.7764" y="-193.804"/>
      <point x="316.0964" y="-184.942" type="curve"/>
      <point x="316.0964" y="-220.276" type="line"/>
      <point x="338.48199999999997" y="-229.138"/>
      <point x="369.0424" y="-236.0"/>
      <point x="418.35" y="-236.0" type="curve" smooth="yes"/>
      <point x="496.6576" y="-236.0"/>
      <point x="580.4648" y="-203.54"/>
      <point x="580.4648" y="-73.62" type="curve" smooth="yes"/>
      <point x="580.4648" y="508.0" type="line"/>
      <point x="442.3152" y="508.0" type="line"/>
      <point x="442.3152" y="479.62" type="line"/>
      <point x="453.52959999999996" y="479.62" type="line" smooth="yes"/>
      <point x="512.7267999999999" y="479.62"/>
      <point x="539.4896" y="465.528"/>
      <point x="539.4896" y="436.528" type="curve" smooth="yes"/>
    </contour>
    <contour>
      <point x="328.2804" y="0.0" type="line"/>
      <point x="328.2804" y="27.828" type="line"/>
      <point x="313.4404" y="27.828" type="line" smooth="yes"/>
      <point x="250.03799999999998" y="27.828"/>
      <point x="202.184" y="30.828"/>
      <point x="202.184" y="37.827999999999996" type="curve" smooth="yes"/>
      <point x="202.184" y="591.034" type="line" smooth="yes"/>
      <point x="202.184" y="690.172"/>
      <point x="245.4124" y="723.666"/>
      <point x="317.2316" y="723.666" type="curve" smooth="yes"/>
      <point x="353.87120000000004" y="723.666"/>
      <point x="382.9284" y="714.7579999999999"/>
      <point x="406.3968" y="706.7579999999999" type="curve"/>
      <point x="406.3968" y="742.0" type="line"/>
      <point x="386.38840000000005" y="748.0"/>
      <point x="353.87120000000004" y="752.0"/>
      <point x="319.85720000000003" y="752.0" type="curve" smooth="yes"/>
      <point x="226.2624" y="752.0"/>
      <point x="161.2088" y="705.23"/>
      <point x="161.2088" y="591.034" type="curve" smooth="yes"/>
      <point x="161.2088" y="63.827999999999996" type="line" smooth="yes"/>
      <point x="161.2088" y="34.827999999999996"/>
      <point x="122.6888" y="27.828"/>
      <point x="58.948800000000006" y="27.828" type="curve" smooth="yes"/>
      <point x="46.1088" y="27.828" type="line"/>
      <point x="46.1088" y="0.0" type="line"/>
    </contour>
  </outline>
</glyph>
<glyph name="five.old" format="2">
  <advance width="650.1600000000001"/>
  <outline>
    <contour>
      <point x="323.86199999999997" y="-149.09199999999998" type="curve" smooth="yes"/>
      <point x="187.99560000000002" y="-149.09199999999998"/>
      <point x="101.0356" y="-82.138"/>
      <point x="59.304" y="5.264" type="curve"/>
      <point x="82.83760000000001" y="30.0" type="line"/>
      <point x="120.06320000000001" y="-48.757999999999996"/>
      <point x="201.256" y="-117.712"/>
      <point x="323.86199999999997" y="-117.712" type="curve" smooth="yes"/>
      <point x="467.7056" y="-117.712"/>
      <point x="550.6564" y="-31.586000000000002"/>
      <point x="550.6564" y="90.77" type="curve" smooth="yes"/>
      <point x="550.6564" y="206.08"/>
      <point x="460.12320000000005" y="273.62"/>
      <point x="345.24760000000003" y="273.62" type="curve" smooth="yes"/>
      <point x="251.04919999999998" y="273.62"/>
      <point x="191.5208" y="239.172"/>
      <point x="137.0844" y="179.0" type="curve"/>
      <point x="110.1736" y="179.0" type="line"/>
      <point x="110.1736" y="548.0" type="line"/>
      <point x="546.486" y="548.0" type="line"/>
      <point x="540.0104" y="509.16" type="line"/>
      <point x="127.6152" y="509.16" type="line"/>
      <point x="143.6732" y="528.0" type="line"/>
      <point x="143.6732" y="205.46" type="line"/>
      <point x="140.2132" y="195.46"/>
      <point x="134.9492" y="186.506"/>
      <point x="121.95" y="198.966" type="curve"/>
      <point x="172.76080000000002" y="260.598"/>
      <point x="242.21839999999997" y="305.0"/>
      <point x="349.4656" y="305.0" type="curve" smooth="yes"/>
      <point x="507.79400000000004" y="305.0"/>
      <point x="595.386" y="203.954"/>
      <point x="595.386" y="90.77" type="curve" smooth="yes"/>
      <point x="595.386" y="-44.46"/>
      <point x="492.8252" y="-149.09199999999998"/>
    </contour>
  </outline>
</glyph>
<glyph name="naira.proportional" format="2">
  <advance width="829.4488"/>
  <outline>
    <contour>
      <point x="45.8604" y="0.0" type="line"/>
      <point x="315.02" y="0.0" type="line"/>
      <point x="315.02" y="30.782" type="line"/>
      <point x="298.72" y="30.782" type="line" smooth="yes"/>
      <point x="248.82" y="30.782"/>
      <point x="192.0" y="38.782000000000004"/>
      <point x="192.0" y="45.782000000000004" type="curve" smooth="yes"/>
      <point x="192.0" y="705.54" type="line"/>
      <point x="179.2428" y="701.7239999999999" type="line"/>
      <point x="626.5436" y="0.0" type="line"/>
      <point x="669.3292" y="0.0" type="line"/>
      <point x="669.3292" y="638.218" type="line" smooth="yes"/>
      <point x="669.3292" y="667.218"/>
      <point x="711.3092" y="679.218"/>
      <point x="768.1292000000001" y="679.218" type="curve" smooth="yes"/>
      <point x="781.9692" y="679.218" type="line"/>
      <point x="781.9692" y="710.0" type="line"/>
      <point x="512.8096" y="710.0" type="line"/>
      <point x="512.8096" y="679.218" type="line"/>
      <point x="529.1924" y="679.218" type="line" smooth="yes"/>
      <point x="579.0096" y="679.218"/>
      <point x="635.8296" y="671.218"/>
      <point x="635.8296" y="664.218" type="curve" smooth="yes"/>
      <point x="635.8296" y="27.368000000000002" type="line"/>
      <point x="648.7588" y="25.631999999999998" type="line"/>
      <point x="216.6688" y="710.0" type="line"/>
      <point x="45.8604" y="710.0" type="line"/>
      <point x="45.8604" y="679.218" type="line"/>
      <point x="58.7004" y="679.218" type="line" smooth="yes"/>
      <point x="115.52040000000001" y="679.218"/>
      <point x="157.5832" y="672.218"/>
      <point x="157.5832" y="643.218" type="curve" smooth="yes"/>
      <point x="157.5832" y="71.782" type="line" smooth="yes"/>
      <point x="157.5832" y="42.782000000000004"/>
      <point x="115.52040000000001" y="30.782"/>
      <point x="58.7004" y="30.782" type="curve" smooth="yes"/>
      <point x="45.8604" y="30.782" type="line"/>
    </contour>
    <contour>
      <point x="40.519999999999996" y="449.954" type="line"/>
      <point x="40.519999999999996" y="418.942" type="line"/>
      <point x="164.906" y="418.942" type="line"/>
      <point x="163.6576" y="449.954" type="line"/>
    </contour>
    <contour>
      <point x="384.5908" y="418.942" type="line"/>
      <point x="650.2188" y="418.942" type="line"/>
      <point x="656.5592" y="418.942" type="line"/>
      <point x="788.4688" y="418.942" type="line"/>
      <point x="788.4688" y="449.954" type="line"/>
      <point x="367.0424" y="449.954" type="line"/>
    </contour>
    <contour>
      <point x="656.7248" y="255.356" type="line"/>
      <point x="788.4688" y="255.356" type="line"/>
      <point x="788.4688" y="286.368" type="line"/>
      <point x="654.9336000000001" y="286.368" type="line"/>
    </contour>
    <contour>
      <point x="40.519999999999996" y="286.368" type="line"/>
      <point x="40.519999999999996" y="255.356" type="line"/>
      <point x="480.4276" y="255.356" type="line"/>
      <point x="463.6612" y="286.368" type="line"/>
      <point x="184.4352" y="286.368" type="line"/>
      <point x="170.5124" y="286.368" type="line"/>
    </contour>
  </outline>
</glyph>
<glyph name="seven.old" format="2">
  <advance width="650.1600000000001"/>
  <outline>
    <contour>
      <point x="263.2268" y="509.16" type="line" smooth="yes"/>
      <point x="163.4268" y="509.16"/>
      <point x="122.4468" y="502.16"/>
      <point x="117.98679999999999" y="466.16" type="curve" smooth="yes"/>
      <point x="107.60679999999999" y="376.16" type="line"/>
      <point x="80.5304" y="376.16" type="line"/>
      <point x="80.5304" y="548.0" type="line"/>
      <point x="611.3024" y="548.0" type="line"/>
      <point x="611.3024" y="509.206" type="line"/>
      <point x="464.7312" y="341.206"/>
      <point x="328.4636" y="179.046"/>
      <point x="295.6612" y="-135.0" type="curve"/>
      <point x="250.18" y="-135.0" type="line"/>
      <point x="286.9024" y="183.58599999999998"/>
      <point x="448.98679999999996" y="376.25399999999996"/>
      <point x="589.2656" y="521.298" type="curve"/>
      <point x="598.3144" y="509.16" type="line"/>
    </contour>
  </outline>
</glyph>
<glyph name="sterling.altprop" format="2">
  <advance width="686.0608"/>
  <outline>
    <contour>
      <point x="41.566" y="352.87399999999997" type="line"/>
      <point x="41.566" y="321.77" type="line"/>
      <point x="489.7552" y="321.77" type="line"/>
      <point x="489.7552" y="352.87399999999997" type="line"/>
    </contour>
    <contour>
      <point x="56.730799999999995" y="0.0" type="line"/>
      <point x="615.3244000000001" y="0.0" type="line"/>
      <point x="615.3244000000001" y="170.162" type="line"/>
      <point x="587.662" y="170.162" type="line"/>
      <point x="577.282" y="74.932" type="line" smooth="yes"/>
      <point x="573.822" y="38.932"/>
      <point x="531.8420000000001" y="31.932000000000002"/>
      <point x="432.04200000000003" y="31.932000000000002" type="curve"/>
      <point x="89.3308" y="31.932000000000002" type="line"/>
      <point x="99.7824" y="25.701999999999998" type="line"/>
      <point x="205.41320000000002" y="68.47200000000001"/>
      <point x="260.6076" y="138.254"/>
      <point x="260.6076" y="222.74800000000002" type="curve" smooth="yes"/>
      <point x="260.6076" y="332.472"/>
      <point x="160.19760000000002" y="410.908"/>
      <point x="160.19760000000002" y="527.678" type="curve" smooth="yes"/>
      <point x="160.19760000000002" y="630.712"/>
      <point x="246.2708" y="686.62"/>
      <point x="365.4104" y="686.62" type="curve" smooth="yes"/>
      <point x="455.1616" y="686.62"/>
      <point x="514.7728" y="655.942"/>
      <point x="545.4988" y="630.712" type="curve"/>
      <point x="545.6644000000001" y="641.172"/>
      <point x="531.7416000000001" y="656.586"/>
      <point x="520.5576" y="670.9879999999999" type="curve"/>
      <point x="520.5576" y="572.62" type="line"/>
      <point x="571.9064000000001" y="572.62" type="line"/>
      <point x="571.9064000000001" y="661.046" type="line"/>
      <point x="540.472" y="683.2760000000001"/>
      <point x="474.6796" y="718.0"/>
      <point x="365.4104" y="718.0" type="curve" smooth="yes"/>
      <point x="220.774" y="718.0"/>
      <point x="116.01080000000002" y="642.6320000000001"/>
      <point x="116.01080000000002" y="527.448" type="curve" smooth="yes"/>
      <point x="116.01080000000002" y="402.23"/>
      <point x="221.6848" y="313.702"/>
      <point x="221.6848" y="222.058" type="curve" smooth="yes"/>
      <point x="221.6848" y="125.116"/>
      <point x="158.346" y="78.56400000000001"/>
      <point x="56.730799999999995" y="36.748" type="curve"/>
    </contour>
  </outline>
</glyph>
<glyph name="zero.den" format="2">
  <advance width="380.7712"/>
  <outline>
    <contour>
      <point x="190.3856" y="347.0" type="curve" smooth="yes"/>
      <point x="103.2536" y="347.0"/>
      <point x="41.010400000000004" y="277.0"/>
      <point x="41.010400000000004" y="170.0" type="curve" smooth="yes"/>
      <point x="41.010400000000004" y="64.0"/>
      <point x="103.2536" y="-6.0"/>
      <point x="190.3856" y="-6.0" type="curve" smooth="yes"/>
      <point x="278.0604" y="-6.0"/>
      <point x="340.3864" y="64.0"/>
      <point x="340.3864" y="170.046" type="curve" smooth="yes"/>
      <point x="340.3864" y="277.0"/>
      <point x="278.0604" y="347.0"/>
    </contour>
    <contour>
      <point x="190.3856" y="21.552" type="curve" smooth="yes"/>
      <point x="126.78080000000001" y="21.552"/>
      <point x="86.0188" y="73.23"/>
      <point x="86.0188" y="170.0" type="curve" smooth="yes"/>
      <point x="86.0188" y="266.77"/>
      <point x="126.78080000000001" y="319.448"/>
      <point x="190.3856" y="319.448" type="curve" smooth="yes"/>
      <point x="254.616" y="319.448"/>
      <point x="295.37800000000004" y="266.81600000000003"/>
      <point x="295.37800000000004" y="170.046" type="curve" smooth="yes"/>
      <point x="295.37800000000004" y="73.276"/>
      <point x="254.616" y="21.552"/>
    </contour>
  </outline>
</glyph>
